<mxfile host="Electron" agent="Mozilla/5.0 (Windows NT 10.0; Win64; x64) AppleWebKit/537.36 (KHTML, like Gecko) draw.io/28.2.5 Chrome/138.0.7204.251 Electron/37.6.1 Safari/537.36" version="28.2.5">
  <diagram name="Page-1" id="dnogcoYyMHIk1B-pPEHQ">
    <mxGraphModel dx="669" dy="457" grid="1" gridSize="10" guides="1" tooltips="1" connect="1" arrows="1" fold="1" page="1" pageScale="1" pageWidth="850" pageHeight="1100" math="0" shadow="0">
      <root>
        <mxCell id="0" />
        <mxCell id="1" parent="0" />
        <mxCell id="LQkXcUbPEHpwg-fe2e8A-1" value="" style="rounded=0;whiteSpace=wrap;html=1;dashed=1;" parent="1" vertex="1">
          <mxGeometry x="41.02" y="30" width="88.98" height="376.5" as="geometry" />
        </mxCell>
        <mxCell id="LQkXcUbPEHpwg-fe2e8A-3" value="crm" style="image;aspect=fixed;html=1;points=[];align=center;fontSize=12;image=img/lib/azure2/general/Folder_Blank.svg;" parent="1" vertex="1">
          <mxGeometry x="60" y="110" width="56.68" height="46" as="geometry" />
        </mxCell>
        <mxCell id="LQkXcUbPEHpwg-fe2e8A-4" value="erp" style="image;aspect=fixed;html=1;points=[];align=center;fontSize=12;image=img/lib/azure2/general/Folder_Blank.svg;" parent="1" vertex="1">
          <mxGeometry x="59.02" y="287" width="52.98" height="43" as="geometry" />
        </mxCell>
        <mxCell id="LQkXcUbPEHpwg-fe2e8A-5" value="sources" style="rounded=1;whiteSpace=wrap;html=1;" parent="1" vertex="1">
          <mxGeometry x="41.02" y="30" width="88.98" height="40" as="geometry" />
        </mxCell>
        <mxCell id="LQkXcUbPEHpwg-fe2e8A-6" value="" style="rounded=0;whiteSpace=wrap;html=1;fillColor=#f8cecc;strokeColor=#b85450;" parent="1" vertex="1">
          <mxGeometry x="180" y="30" width="110" height="380" as="geometry" />
        </mxCell>
        <mxCell id="LQkXcUbPEHpwg-fe2e8A-7" value="crm_cust_info" style="shape=process;whiteSpace=wrap;html=1;backgroundOutline=1;shadow=0;" parent="1" vertex="1">
          <mxGeometry x="180" y="80" width="110" height="30" as="geometry" />
        </mxCell>
        <mxCell id="LQkXcUbPEHpwg-fe2e8A-8" value="crm_prd_info" style="shape=process;whiteSpace=wrap;html=1;backgroundOutline=1;shadow=0;" parent="1" vertex="1">
          <mxGeometry x="180" y="118" width="110" height="30" as="geometry" />
        </mxCell>
        <mxCell id="LQkXcUbPEHpwg-fe2e8A-9" value="crm_sales_details" style="shape=process;whiteSpace=wrap;html=1;backgroundOutline=1;shadow=0;size=0;" parent="1" vertex="1">
          <mxGeometry x="180" y="156" width="110" height="30" as="geometry" />
        </mxCell>
        <mxCell id="LQkXcUbPEHpwg-fe2e8A-10" value="erp_px_cat_glv2" style="shape=process;whiteSpace=wrap;html=1;backgroundOutline=1;shadow=0;" parent="1" vertex="1">
          <mxGeometry x="180" y="340" width="110" height="30" as="geometry" />
        </mxCell>
        <mxCell id="LQkXcUbPEHpwg-fe2e8A-12" value="erp_loc_a101" style="shape=process;whiteSpace=wrap;html=1;backgroundOutline=1;shadow=0;size=0.09090909090909091;" parent="1" vertex="1">
          <mxGeometry x="180" y="300" width="110" height="30" as="geometry" />
        </mxCell>
        <mxCell id="LQkXcUbPEHpwg-fe2e8A-13" value="erp_cust_az12" style="shape=process;whiteSpace=wrap;html=1;backgroundOutline=1;shadow=0;" parent="1" vertex="1">
          <mxGeometry x="180" y="260" width="110" height="30" as="geometry" />
        </mxCell>
        <mxCell id="LQkXcUbPEHpwg-fe2e8A-15" value="Bronze layer" style="ellipse;whiteSpace=wrap;html=1;fillColor=#d5e8d4;strokeColor=#82b366;" parent="1" vertex="1">
          <mxGeometry x="195" y="10" width="80" height="40" as="geometry" />
        </mxCell>
        <mxCell id="LQkXcUbPEHpwg-fe2e8A-21" value="" style="shape=step;perimeter=stepPerimeter;whiteSpace=wrap;html=1;fixedSize=1;fillColor=#e1d5e7;strokeColor=#9673a6;" parent="1" vertex="1">
          <mxGeometry x="120" y="122" width="60" height="26" as="geometry" />
        </mxCell>
        <mxCell id="LQkXcUbPEHpwg-fe2e8A-23" value="" style="shape=step;perimeter=stepPerimeter;whiteSpace=wrap;html=1;fixedSize=1;fillColor=#e1d5e7;strokeColor=#9673a6;" parent="1" vertex="1">
          <mxGeometry x="116.68" y="300" width="60" height="26" as="geometry" />
        </mxCell>
      </root>
    </mxGraphModel>
  </diagram>
</mxfile>
